HIERARCHY
ROOT Hips
{
	OFFSET 0.000000 0.000000 0.000000
	CHANNELS 6 Xposition Yposition Zposition Zrotation Yrotation Xrotation 
	JOINT LHipJoint
	{
		OFFSET 0.000000 0.000000 0.000000
		CHANNELS 3 Zrotation Yrotation Xrotation
		JOINT LeftUpLeg
		{
			OFFSET 1.363060 -1.794630 0.839290
			CHANNELS 3 Zrotation Yrotation Xrotation
			JOINT LeftLeg
			{
				OFFSET 2.448110 -6.726130 0.000000
				CHANNELS 3 Zrotation Yrotation Xrotation
				JOINT LeftFoot
				{
					OFFSET 2.562200 -7.039590 0.000000
					CHANNELS 3 Zrotation Yrotation Xrotation
					JOINT LeftToeBase
					{
						OFFSET 0.157640 -0.433110 2.322550
						CHANNELS 3 Zrotation Yrotation Xrotation
						End Site
						{
							OFFSET 0.000000 0.000000 0.000000
						}
					}
				}
			}
		}
	}
	JOINT RHipJoint
	{
		OFFSET 0.000000 0.000000 0.000000
		CHANNELS 3 Zrotation Yrotation Xrotation
		JOINT RightUpLeg
		{
			OFFSET -1.305520 -1.794630 0.839290
			CHANNELS 3 Zrotation Yrotation Xrotation
			JOINT RightLeg
			{
				OFFSET -2.542530 -6.985550 0.000000
				CHANNELS 3 Zrotation Yrotation Xrotation
				JOINT RightFoot
				{
					OFFSET -2.568260 -7.056230 0.000000
					CHANNELS 3 Zrotation Yrotation Xrotation
					JOINT RightToeBase
					{
						OFFSET -0.164730 -0.452590 2.363150
						CHANNELS 3 Zrotation Yrotation Xrotation
						End Site
						{
							OFFSET 0.000000 0.000000 0.000000
						}
					}
				}
			}
		}
	}
	JOINT LowerBack
	{
		OFFSET 0.000000 0.000000 0.000000
		CHANNELS 3 Zrotation Yrotation Xrotation
		JOINT Spine
		{
			OFFSET 0.028270 2.035590 -0.193380
			CHANNELS 3 Zrotation Yrotation Xrotation
			JOINT Spine1
			{
				OFFSET 0.056720 2.048850 -0.042750
				CHANNELS 3 Zrotation Yrotation Xrotation
				JOINT Neck
				{
					OFFSET 0.000000 0.000000 0.000000
					CHANNELS 3 Zrotation Yrotation Xrotation
					JOINT Neck1
					{
						OFFSET -0.054170 1.746240 0.172020
						CHANNELS 3 Zrotation Yrotation Xrotation
						JOINT Head
						{
							OFFSET 0.104070 1.761360 -0.123970
							CHANNELS 3 Zrotation Yrotation Xrotation
							End Site
							{
								OFFSET 0.000000 0.000000 0.000000
							}
						}
					}
				}
				JOINT LeftShoulder
				{
					OFFSET 0.000000 0.000000 0.000000
					CHANNELS 3 Zrotation Yrotation Xrotation
					JOINT LeftArm
					{
						OFFSET 3.362410 1.200890 -0.311210
						CHANNELS 3 Zrotation Yrotation Xrotation
						JOINT LeftForeArm
						{
							OFFSET 4.983000 -0.000000 -0.000000
							CHANNELS 3 Zrotation Yrotation Xrotation
							JOINT LeftHand
							{
								OFFSET 3.483560 -0.000000 -0.000000
								CHANNELS 3 Zrotation Yrotation Xrotation
								JOINT LeftFingerBase
								{
									OFFSET 0.000000 0.000000 0.000000
									CHANNELS 3 Zrotation Yrotation Xrotation
									JOINT LeftHandIndex1
									{
										OFFSET 0.715260 -0.000000 -0.000000
										CHANNELS 3 Zrotation Yrotation Xrotation
										End Site
										{
											OFFSET 0.000000 0.000000 0.000000
										}
									}
								}
								JOINT LThumb
								{
									OFFSET 0.000000 0.000000 0.000000
									CHANNELS 3 Zrotation Yrotation Xrotation
									End Site
									{
										OFFSET 0.000000 0.000000 0.000000
									}
								}
							}
						}
					}
				}
				JOINT RightShoulder
				{
					OFFSET 0.000000 0.000000 0.000000
					CHANNELS 3 Zrotation Yrotation Xrotation
					JOINT RightArm
					{
						OFFSET -3.136600 1.374050 -0.404650
						CHANNELS 3 Zrotation Yrotation Xrotation
						JOINT RightForeArm
						{
							OFFSET -5.241900 -0.000000 -0.000000
							CHANNELS 3 Zrotation Yrotation Xrotation
							JOINT RightHand
							{
								OFFSET -3.444170 -0.000000 -0.000000
								CHANNELS 3 Zrotation Yrotation Xrotation
								JOINT RightFingerBase
								{
									OFFSET 0.000000 0.000000 0.000000
									CHANNELS 3 Zrotation Yrotation Xrotation
									JOINT RightHandIndex1
									{
										OFFSET -0.622530 -0.000000 -0.000000
										CHANNELS 3 Zrotation Yrotation Xrotation
										End Site
										{
											OFFSET 0.000000 0.000000 0.000000
										}
									}
								}
								JOINT RThumb
								{
									OFFSET 0.000000 0.000000 0.000000
									CHANNELS 3 Zrotation Yrotation Xrotation
									End Site
									{
										OFFSET 0.000000 0.000000 0.000000
									}
								}
							}
						}
					}
				}
			}
		}
	}
}
MOTION
Frames: 9
Frame Time: 0.008333
2.415177 16.667735 10.070968 -5.731377 3.232877 108.443959 -10.218037 -8.958884 -5.610593 -4.975852 4.766368 -33.433293 -0.001426 9.549954 18.046291 -4.686945 25.762108 37.212912 1.484200 -7.697000 -21.797300 5.506839 6.020843 -3.134777 10.437823 -2.433254 -32.852693 0.936401 -10.165989 21.746278 -1.439502 -16.305008 44.591686 -0.574400 -4.853400 13.490900 0.541265 5.725265 -14.266074 1.492406 4.813790 -4.147865 -0.249166 2.624034 8.269399 5.892372 -1.853318 -20.362986 4.355552 -4.749710 14.461819 -4.182900 -0.476200 13.420500 18.800641 -1.477393 -1.008159 -19.957481 -28.348124 34.288624 53.901420 -46.277448 -33.112521 -0.195644 -0.238702 -27.654894 41.332378 -8.216158 -7.068900 -7.125000 0.000000 0.000000 10.483900 19.392600 -6.517300 -23.189612 3.305577 6.272632 -41.848131 8.232979 -55.329494 -11.288543 19.881222 -3.873143 4.063970 0.595806 4.757008 -19.974503 2.997933 -0.866600 7.125000 0.000000 0.000000 2.005600 -27.845600 0.837100 
2.421360 16.664643 10.092379 -5.664965 3.265972 108.493033 -10.468672 -8.948570 -5.881921 -4.415340 4.077513 -33.047007 -0.081904 9.276464 16.684985 -6.080166 28.416042 36.102927 1.295700 -7.211900 -20.344500 5.588321 5.926252 -2.957814 10.407353 -2.626107 -32.728546 0.853720 -10.239676 21.959034 -1.507454 -16.364797 44.881829 -0.591800 -4.925300 13.695700 0.783040 5.918142 -14.251465 1.493044 4.962699 -4.182826 -0.527913 2.735456 8.119691 6.539973 -2.009768 -20.420383 4.196846 -5.208272 14.585169 -4.620900 -0.526100 13.634200 18.743423 -1.272111 -1.109512 -22.665749 -27.476704 37.670411 55.569231 -47.229411 -34.104521 -0.061040 -0.119901 -27.299867 41.856665 -8.003056 -7.034300 -7.125000 0.000000 0.000000 10.748900 19.520100 -6.656800 -23.054093 3.255421 6.261897 -41.704548 8.286365 -54.476687 -11.547276 20.077781 -3.993957 4.071205 0.619885 4.220880 -20.177579 3.129053 -0.938100 7.125000 0.000000 0.000000 1.837200 -27.689400 0.773500 
2.428345 16.661437 10.114364 -5.627014 3.256638 108.554677 -10.682259 -8.945081 -6.154058 -3.817803 3.151335 -32.637015 -0.144023 9.065098 15.513200 -7.675895 31.045521 34.499191 1.191100 -6.925500 -19.494900 5.662996 5.834621 -2.794088 10.352445 -2.854394 -32.623100 0.770925 -10.294505 22.107930 -1.552635 -16.514521 45.168211 -0.602900 -4.970200 13.823700 0.967874 6.107883 -14.247640 1.486096 5.126835 -4.216543 -0.782360 2.854828 7.971414 7.160777 -2.137901 -20.445421 4.093613 -5.619506 14.683577 -4.983100 -0.562600 13.795000 18.668267 -1.064604 -1.160470 -24.907183 -26.248159 40.841583 57.314774 -48.165738 -35.244251 0.031153 -0.075835 -27.425415 42.157179 -7.579968 -6.714900 -7.125000 0.000000 0.000000 10.959300 20.034500 -6.663200 -22.917862 3.197238 6.249747 -41.535234 8.336738 -53.627578 -11.808457 20.272869 -4.121997 4.153502 0.593566 4.086131 -20.701730 3.211964 -1.013700 7.125000 0.000000 0.000000 1.366900 -27.562600 0.579400 
2.442314 16.661895 10.144363 -5.404166 3.237420 108.567470 -10.907948 -8.945408 -6.335797 -3.160570 1.934346 -32.075916 -0.302244 8.782192 14.423794 -8.910191 32.752892 32.992700 1.064600 -6.559800 -18.417600 5.731209 5.751092 -2.664745 10.319080 -3.225715 -32.613567 0.665777 -10.364145 22.261905 -1.548716 -16.783657 45.386610 -0.620100 -5.039300 14.020700 1.313795 6.170943 -14.105309 1.476902 5.116799 -4.246241 -1.059763 2.885989 7.796996 7.219302 -2.018358 -20.286905 4.275346 -5.463795 14.527926 -4.794800 -0.513300 13.661000 18.529884 -0.900713 -1.109846 -26.849610 -24.503633 43.774464 58.724222 -49.036585 -36.260423 0.053398 -0.078131 -28.341108 42.537330 -7.321677 -6.554100 -7.125000 0.000000 0.000000 11.259800 20.342700 -6.773600 -22.826778 3.100407 6.254005 -41.385238 8.384875 -53.031864 -12.099447 20.573920 -4.311115 4.112710 0.569283 4.396043 -20.860565 3.353238 -1.085100 7.125000 0.000000 0.000000 1.278500 -27.403600 0.546700 
2.452734 16.661208 10.162912 -5.262378 3.225326 108.601060 -11.104383 -8.943888 -6.531824 -2.443478 0.608852 -31.519019 -0.422315 8.540561 13.394953 -10.383202 34.707351 31.151867 0.936800 -6.165100 -17.264200 5.783094 5.669656 -2.536287 10.289038 -3.510473 -32.585308 0.563203 -10.440391 22.445041 -1.559878 -16.991533 45.603484 -0.634300 -5.095800 14.181900 1.593009 6.279262 -14.017196 1.471687 5.171429 -4.276904 -1.306019 2.946347 7.627934 7.509993 -2.008620 -20.205874 4.319523 -5.555257 14.481026 -4.860000 -0.503100 13.654400 18.447160 -0.731649 -1.139385 -28.876779 -22.866593 46.688635 59.995412 -49.884125 -37.053063 0.081971 -0.046471 -28.920780 42.875541 -7.020719 -6.369400 -7.125000 0.000000 0.000000 11.517900 20.668400 -6.848900 -22.722416 3.029769 6.254316 -41.239453 8.430220 -52.342527 -12.394231 20.845842 -4.486860 4.102233 0.545331 4.495547 -21.124408 3.499271 -1.172100 7.125000 0.000000 0.000000 1.084300 -27.223500 0.468200 
2.463268 16.661552 10.178370 -5.118680 3.207987 108.633164 -11.272648 -8.951730 -6.696528 -1.698202 -0.865366 -30.948048 -0.539730 8.320281 12.493360 -11.801817 36.407858 29.210786 0.821300 -5.782500 -16.154700 5.817273 5.596972 -2.428668 10.267833 -3.787993 -32.586699 0.454133 -10.524165 22.640809 -1.556825 -17.215803 45.787176 -0.647500 -5.147600 14.329900 1.873908 6.369706 -13.916310 1.468332 5.205039 -4.305972 -1.525967 2.994681 7.456014 7.732138 -1.976415 -20.098739 4.385821 -5.588744 14.408201 -4.875400 -0.485900 13.614700 18.371732 -0.573317 -1.178000 -30.784057 -21.072625 49.471303 61.090153 -50.697154 -37.705459 0.085332 -0.025085 -29.690556 43.165184 -6.711675 -6.168200 -7.125000 0.000000 0.000000 11.763200 21.009400 -6.908300 -22.624038 2.959999 6.257283 -41.105578 8.472787 -51.684309 -12.708135 21.143537 -4.679833 4.076159 0.513464 4.684819 -21.376184 3.668398 -1.271400 7.125000 0.000000 0.000000 0.912800 -27.014600 0.398600 
2.473115 16.662811 10.190507 -4.976161 3.195548 108.662989 -11.422393 -8.964264 -6.827333 -0.950117 -2.396840 -30.378396 -0.653495 8.110263 11.680448 -13.103658 37.874812 27.329822 0.718700 -5.417600 -15.103500 5.832089 5.534121 -2.343965 10.262143 -4.039652 -32.623018 0.337271 -10.624683 22.871769 -1.540343 -17.437605 45.925189 -0.660100 -5.196200 14.469100 2.156589 6.446632 -13.807444 1.468077 5.220728 -4.333260 -1.712021 3.031149 7.284358 7.898678 -1.933813 -19.973554 4.460888 -5.586686 14.321566 -4.863200 -0.466000 13.556200 18.308221 -0.425330 -1.231114 -32.595745 -19.155209 52.119646 62.007513 -51.475598 -38.206352 0.067202 -0.012878 -30.617526 43.373444 -6.380356 -5.930700 -7.125000 0.000000 0.000000 11.972700 21.388600 -6.931500 -22.530440 2.891050 6.261570 -40.986043 8.512585 -51.047730 -13.041742 21.465554 -4.888890 4.034357 0.474395 4.928092 -21.615696 3.870134 -1.388800 7.125000 0.000000 0.000000 0.764100 -26.764100 0.338200 
2.481703 16.664987 10.198866 -4.856364 3.187489 108.691424 -11.546123 -8.984959 -6.927565 -0.250187 -3.872947 -29.861060 -0.749736 7.931883 10.993967 -14.239711 39.111357 25.618751 0.634900 -5.098000 -14.188200 5.832157 5.482077 -2.281396 10.266314 -4.252641 -32.678428 0.220412 -10.730454 23.108649 -1.515525 -17.660343 46.035729 -0.671000 -5.238200 14.589200 2.425388 6.518357 -13.696936 1.470997 5.231655 -4.358236 -1.858504 3.063370 7.117649 8.037333 -1.895742 -19.839996 4.530233 -5.580871 14.237923 -4.851600 -0.448400 13.496000 18.259181 -0.283674 -1.300670 -34.303739 -17.142252 54.629143 62.781307 -52.221091 -38.579567 0.031482 -0.012782 -31.665868 43.459021 -5.984865 -5.606300 -7.125000 0.000000 0.000000 12.123800 21.872100 -6.886600 -22.439342 2.824625 6.265724 -40.878545 8.548934 -50.425181 -13.389953 21.802303 -5.109350 3.986050 0.424055 5.214514 -21.874307 4.107617 -1.530400 7.125000 0.000000 0.000000 0.606900 -26.463000 0.272900 
2.488458 16.667964 10.204476 -4.760184 3.187105 108.711078 -11.647704 -9.010688 -6.999387 0.346078 -5.159596 -29.429635 -0.825004 7.789924 10.441827 -15.141435 40.100407 24.241172 0.573900 -4.851300 -13.484900 5.822248 5.440156 -2.239316 10.279617 -4.425307 -32.747244 0.107355 -10.837594 23.340370 -1.484406 -17.885378 46.124695 -0.680400 -5.274100 14.692000 2.682252 6.585147 -13.581004 1.476370 5.239318 -4.380154 -1.967521 3.092113 6.957855 8.136485 -1.858050 -19.693330 4.602556 -5.560936 14.155898 -4.826000 -0.430700 13.430700 18.220933 -0.148124 -1.381542 -35.881473 -15.034348 56.993974 63.443950 -52.935743 -38.862338 -0.018768 -0.028423 -32.819049 43.421910 -5.505365 -5.174500 -7.125000 0.000000 0.000000 12.220000 22.491300 -6.766800 -22.352244 2.759532 6.270736 -40.778037 8.581127 -49.823035 -13.744678 22.146196 -5.338089 3.936197 0.359432 5.559892 -22.165356 4.381333 -1.699500 7.125000 0.000000 0.000000 0.427800 -26.108100 0.195900 
